# xmcd
# Track frame offsets:
# 150
# 15900
# 34987
# 50905
# 72898
# 88835
# 114485
# 135016
# 153128
# 172384
# 191584
# 206012
# 228887
# 244187
# 262299
# 282886
# 303379
#
# Disc length: 4368 seconds
# Revision: 0
# Processed by: cddbd v1.5.2PL0 Copyright (c) Steve Scherf et al.
# Submitted via: VisiTrax 2.11.2.271 - For more info visit www.synapsa.com
#
DISCID=ef110e11
DTITLE=Cold Snap - Authorized Boot Leg
DYEAR=2012
DGENRE=Blues
TTITLE0=Shotgun
TTITLE1=Little by Little
TTITLE2=Shake it Baby
TTITLE3=It Hurt So Bad
TTITLE4=My Baby Likes to Boogaloo
TTITLE5=Soulshine
TTITLE6=Anyday
TTITLE7=1955
TTITLE8=I Fell in Love
TTITLE9=Start it Up
TTITLE10=Can't Leave You Alone
TTITLE11=Love Like I Wanna
TTITLE12=Jealous Man
TTITLE13=Red Hot Apple
TTITLE14=Rock Me Right
TTITLE15=Just A Little
TTITLE16=Lay My Guitar Down
EXTD=
EXTT0=
EXTT1=
EXTT2=
EXTT3=
EXTT4=
EXTT5=
EXTT6=
EXTT7=
EXTT8=
EXTT9=
EXTT10=
EXTT11=
EXTT12=
EXTT13=
EXTT14=
EXTT15=
EXTT16=
PLAYORDER=
